<svg width="24" height="24" viewBox="0 0 24 24" fill="none" xmlns="http://www.w3.org/2000/svg">
<g clip-path="url(#clip0_34_32)">
<path d="M1.3268 12.4002L4.8868 15.0002L3.5348 19.1872C3.31631 19.8366 3.31354 20.5392 3.52691 21.1903C3.74027 21.8414 4.15834 22.4061 4.7188 22.8002C5.26965 23.207 5.93719 23.4249 6.62195 23.4215C7.30671 23.418 7.97204 23.1935 8.5188 22.7812L11.9998 20.2192L15.4818 22.7782C16.0317 23.1827 16.6956 23.4023 17.3782 23.4057C18.0607 23.409 18.7268 23.1958 19.2806 22.7967C19.8343 22.3976 20.2473 21.8332 20.4601 21.1847C20.6729 20.5361 20.6745 19.8368 20.4648 19.1872L19.1128 15.0002L22.6728 12.4002C23.2219 11.9987 23.6302 11.4339 23.8391 10.7866C24.0481 10.1392 24.0472 9.44238 23.8365 8.79559C23.6258 8.14879 23.216 7.58512 22.6658 7.1851C22.1156 6.78508 21.4531 6.56917 20.7728 6.5682H16.3998L15.0728 2.4322C14.8641 1.78116 14.4541 1.21321 13.9018 0.810264C13.3495 0.407315 12.6835 0.190186 11.9998 0.190186C11.3161 0.190186 10.6501 0.407315 10.0978 0.810264C9.54553 1.21321 9.13548 1.78116 8.9268 2.4322L7.5998 6.5682H3.2308C2.55054 6.56917 1.88799 6.78508 1.33778 7.1851C0.787564 7.58512 0.377837 8.14879 0.167118 8.79559C-0.0436018 9.44238 -0.0445344 10.1392 0.164453 10.7866C0.37344 11.4339 0.781657 11.9987 1.3308 12.4002H1.3268Z" fill="#FFE605"/>
</g>
<defs>
<clipPath id="clip0_34_32">
<rect width="24" height="24" fill="white"/>
</clipPath>
</defs>
</svg>
