<svg width="30" height="30" viewBox="0 0 30 30" fill="none" xmlns="http://www.w3.org/2000/svg">
<path d="M27 0H2.07043C0.928125 0 0 0.941106 0 2.09639V26.9805C0 28.1358 0.928125 29.0769 2.07043 29.0769H27C28.1423 29.0769 29.0769 28.1358 29.0769 26.9805V2.09639C29.0769 0.941106 28.1423 0 27 0ZM8.78798 24.9231H4.47837V11.0466H8.79447V24.9231H8.78798ZM6.63317 9.15144C5.25072 9.15144 4.13438 8.02861 4.13438 6.65264C4.13438 5.27668 5.25072 4.15385 6.63317 4.15385C8.00913 4.15385 9.13197 5.27668 9.13197 6.65264C9.13197 8.0351 8.01562 9.15144 6.63317 9.15144ZM24.9425 24.9231H20.6329V18.1731C20.6329 16.5635 20.6005 14.493 18.3937 14.493C16.1481 14.493 15.8041 16.2454 15.8041 18.0563V24.9231H11.4945V11.0466H15.6288V12.9418H15.6873C16.2649 11.8514 17.6733 10.7026 19.7697 10.7026C24.1313 10.7026 24.9425 13.5779 24.9425 17.3163V24.9231Z" fill="black"/>
</svg>
